<?xml version="1.0" encoding="UTF-8"?>
<!DOCTYPE svg PUBLIC "-//W3C//DTD SVG 1.1//EN" "http://www.w3.org/Graphics/SVG/1.1/DTD/svg11.dtd">
<!-- Creator: CorelDRAW -->
<svg xmlns="http://www.w3.org/2000/svg" xml:space="preserve" width="210mm" height="297mm" version="1.1" style="shape-rendering:geometricPrecision; text-rendering:geometricPrecision; image-rendering:optimizeQuality; fill-rule:evenodd; clip-rule:evenodd"
viewBox="0 0 21000 29700"
 xmlns:xlink="http://www.w3.org/1999/xlink"
 enable-background="new 0 0 334 84"
 xmlns:dc="http://purl.org/dc/elements/1.1/"
 xmlns:cc="http://creativecommons.org/ns#"
 xmlns:rdf="http://www.w3.org/1999/02/22-rdf-syntax-ns#"
 xmlns:svg="http://www.w3.org/2000/svg"
 xmlns:sodipodi="http://sodipodi.sourceforge.net/DTD/sodipodi-0.dtd"
 xmlns:inkscape="http://www.inkscape.org/namespaces/inkscape"
 inkscape:version="0.92.3 (2405546, 2018-03-11)"
 sodipodi:docname="Alfamart.svg">
 <defs>
  <style type="text/css">
   <![CDATA[
    .fil0 {fill:#1756C2;fill-rule:nonzero}
    .fil2 {fill:#D60F27;fill-rule:nonzero}
    .fil1 {fill:#EFCF00;fill-rule:nonzero}
   ]]>
  </style>
 </defs>
 <g id="Layer_x0020_1">
  <metadata id="CorelCorpID_0Corel-Layer"/>
  <g id="Alfamart.cdr">
   <sodipodi:namedview pagecolor="#ffffff" bordercolor="#666666" borderopacity="1" objecttolerance="10" gridtolerance="10" guidetolerance="10" inkscape:pageopacity="0" inkscape:pageshadow="2" inkscape:window-width="1280" inkscape:window-height="1004" id="namedview198" showgrid="false" fit-margin-top="0" fit-margin-left="0" fit-margin-right="0" fit-margin-bottom="0" inkscape:zoom="8.7486948" inkscape:cx="247.11667" inkscape:cy="40.949792" inkscape:window-x="-8" inkscape:window-y="-8" inkscape:window-maximized="1" inkscape:current-layer="g3"/>
   <sodipodi:namedview id="base" pagecolor="#00ffff" bordercolor="#666666" borderopacity="1.0" inkscape:pageopacity="0" inkscape:pageshadow="2" inkscape:zoom="1.4" inkscape:cx="451.73565" inkscape:cy="-10.201303" inkscape:document-units="px" inkscape:current-layer="layer1" showgrid="false" fit-margin-left="0.3" fit-margin-top="0.3" fit-margin-right="0.3" fit-margin-bottom="0.3" units="px" inkscape:window-width="1920" inkscape:window-height="1001" inkscape:window-x="-9" inkscape:window-y="-9" inkscape:window-maximized="1"/>
   <sodipodi:namedview id="base" pagecolor="#ffffff" bordercolor="#666666" borderopacity="1.0" inkscape:pageopacity="0.0" inkscape:pageshadow="2" inkscape:zoom="0.35" inkscape:cx="-647.86733" inkscape:cy="78.056589" inkscape:document-units="mm" inkscape:current-layer="layer1" showgrid="false" fit-margin-top="0" fit-margin-left="0" fit-margin-right="0" fit-margin-bottom="0" inkscape:window-width="1280" inkscape:window-height="738" inkscape:window-x="-8" inkscape:window-y="-8" inkscape:window-maximized="1"/>
   <path id="path6131" class="fil0" d="M3971 11489c-295,0 -467,228 -467,553l0 211 0 2064 0 217c0,318 172,549 467,549 289,0 468,-231 468,-549l0 -217 0 -2064 0 -211c0,-325 -179,-553 -468,-553z" inkscape:connector-curvature="0"/>
   <g>
    <path id="path6133" class="fil0" d="M6163 12476l-219 0 0 -137c0,-153 89,-218 325,-191 252,23 308,-137 308,-264 0,-99 -29,-150 -105,-238 -163,-162 -575,-157 -575,-157 0,0 -374,-17 -627,184 -253,196 -231,553 -231,553l0 250 -40 0c-168,0 -346,104 -346,319 0,215 202,314 364,314l22 0 0 1487c0,256 157,487 466,487 316,0 438,-224 438,-472l0 -1502 220 0c122,0 363,-59 363,-302 0,-252 -190,-331 -363,-331l0 0zm0 0l0 0 0 0z" inkscape:connector-curvature="0"/>
   </g>
   <g>
    <path id="path6135" class="fil0" d="M8801 12394c-152,0 -273,68 -352,171 -145,-101 -337,-171 -560,-171 -953,0 -1375,715 -1375,1407 0,740 513,1312 1375,1312 204,0 400,-68 559,-172 78,105 199,172 353,172 296,0 465,-228 465,-550l0 -1617c0,-317 -169,-552 -465,-552l0 0zm-1362 1371l0 0c0,-589 286,-693 478,-693 8,0 17,0 24,0 220,17 394,164 394,718 0,546 -188,655 -383,666 -12,0 -18,0 -30,0 -219,0 -483,-104 -483,-691l0 0zm0 0l0 0 0 0z" inkscape:connector-curvature="0"/>
   </g>
   <path id="path6137" class="fil0" d="M3143 14375c-48,-146 -835,-2389 -874,-2495 -43,-106 -83,-183 -178,-250 -157,-119 -494,-112 -494,-112 0,0 -332,-8 -492,112 -94,67 -133,144 -175,250 -39,106 -826,2349 -881,2495 -44,142 -82,317 0,459 91,133 240,249 432,249 195,0 368,-85 444,-323 73,-243 112,-361 112,-361l560 0 563 0c0,0 37,118 111,361 74,238 251,323 441,323 200,0 352,-116 431,-249 86,-142 53,-317 0,-459l0 0zm-1894 -749l0 0 348 -1138 350 1138 -698 0z" inkscape:connector-curvature="0"/>
   <path id="path6139" class="fil1" d="M19776 17784l-19776 0 0 427 19776 0c607,0 1115,-446 1208,-1024 -272,364 -715,597 -1208,597z" inkscape:connector-curvature="0"/>
   <path id="path6141" class="fil2" d="M20999 16267l0 -342 -19772 0c-675,0 -1227,552 -1227,1228l0 342 19776 0c676,0 1223,-553 1223,-1228z" inkscape:connector-curvature="0"/>
   <g>
    <path id="path6143" class="fil2" d="M13306 12366c-500,0 -986,670 -1159,929 8,-59 21,-149 48,-252 37,-171 68,-412 -48,-555 -68,-82 -168,-122 -303,-122 -463,0 -921,591 -1116,880 23,-84 51,-190 69,-251 30,-143 90,-364 -6,-494 -57,-79 -151,-115 -284,-115 -218,0 -461,102 -471,102l-49 22 45 27c0,0 67,67 15,420 -88,620 -290,1360 -369,1654 -46,149 -39,272 21,353 63,82 178,130 321,130 200,0 381,-67 392,-77l29 -7 -23 -30c0,-2 -105,-157 33,-458 463,-1030 837,-1440 942,-1510 25,-12 39,-26 57,-26 11,0 17,8 17,14 12,6 14,31 12,54 -38,358 -189,956 -287,1356 -21,91 -43,166 -55,228 -36,153 -24,272 34,351 58,65 152,103 284,103 208,0 391,-76 399,-78l38 -15 -28 -25c0,-10 -101,-141 40,-459 342,-793 805,-1412 925,-1502 40,-28 61,-32 73,-32 4,0 6,0 14,12 9,9 13,43 9,84 -2,15 -15,65 -26,138 -68,274 -190,841 -257,1236 -40,235 -20,412 67,512 71,81 181,129 316,129 235,0 452,-147 462,-152l34 -23 -31 -22c0,0 -167,-156 -85,-619 58,-310 133,-666 189,-925 27,-130 44,-238 58,-297l4 -23c30,-143 76,-402 -47,-550 -66,-85 -164,-117 -300,-117l-3 2zm0 0l0 0 0 0z" inkscape:connector-curvature="0"/>
   </g>
   <g>
    <path id="path6145" class="fil2" d="M16230 12394c-142,0 -258,37 -337,114 -57,-36 -255,-142 -514,-142 -147,0 -365,28 -608,182 -271,168 -499,436 -685,803 -421,821 -220,1420 -114,1568 92,127 220,185 404,185 261,0 607,-102 1135,-932 -15,117 -33,281 -33,421 0,452 319,501 450,501 340,0 459,-159 460,-164l14 -18 -14 -17c-4,-6 -158,-164 -57,-1005 99,-801 377,-1353 377,-1360l13 -22 -24 -15c-9,-4 -239,-99 -467,-99l0 0zm-1470 2094l0 0c-69,0 -106,-118 -106,-243 0,-135 67,-910 396,-1308 72,-78 159,-126 245,-126 211,0 407,225 456,283 -255,518 -613,1054 -868,1317 -46,53 -92,77 -123,77l0 0zm0 0l0 0 0 0z" inkscape:connector-curvature="0"/>
   </g>
   <g>
    <path id="path6147" class="fil2" d="M18840 12366c-367,0 -809,609 -996,891 31,-122 76,-302 111,-468 24,-124 8,-221 -40,-286 -64,-72 -168,-110 -314,-110 -208,0 -460,92 -469,95l-37 15 32 28c0,4 68,100 26,439 -58,369 -293,1289 -392,1661 -45,150 -34,259 21,337 84,113 247,126 359,126 190,0 380,-66 388,-76l37 -7 -22 -31c-1,-1 -91,-144 13,-420 281,-709 594,-1123 781,-1265 43,-30 87,-49 131,-49 103,0 168,116 168,116l15 29 23 -24c98,-97 273,-304 337,-491 44,-112 101,-311 16,-427 -36,-58 -100,-83 -188,-83l0 0zm0 0l0 0 0 0z" inkscape:connector-curvature="0"/>
   </g>
   <path id="path6149" class="fil2" d="M20964 12699c-103,36 -356,59 -697,59 -38,0 -70,0 -91,0 15,-88 77,-336 144,-572 42,-142 37,-259 -23,-335 -59,-72 -156,-104 -303,-104 -206,0 -503,92 -515,97l-44 14 38 34c114,117 -9,678 -62,887 -6,12 -296,1126 -296,1658 0,447 245,668 713,668 219,0 538,-59 752,-245 93,-81 135,-196 110,-319 -13,-87 -57,-156 -57,-160l-15 -32 -28 26c-4,0 -100,94 -293,160 -72,21 -129,35 -188,35 -62,0 -114,-25 -163,-66 -109,-112 -39,-509 -16,-637 37,-202 126,-578 145,-672 34,0 105,-2 195,-2 78,0 145,2 210,2 403,7 516,-306 520,-471l0 -42 -36 17z" inkscape:connector-curvature="0"/>
  </g>
 </g>
</svg>
