<?xml version="1.0" encoding="UTF-8"?>
<!DOCTYPE svg PUBLIC "-//W3C//DTD SVG 1.1//EN" "http://www.w3.org/Graphics/SVG/1.1/DTD/svg11.dtd">
<!-- Creator: CorelDRAW X7 -->
<svg xmlns="http://www.w3.org/2000/svg" xml:space="preserve" width="100mm" height="100mm" version="1.1" style="shape-rendering:geometricPrecision; text-rendering:geometricPrecision; image-rendering:optimizeQuality; fill-rule:evenodd; clip-rule:evenodd"
viewBox="0 0 10000 10000"
 xmlns:xlink="http://www.w3.org/1999/xlink">
 <defs>
  <style type="text/css">
   <![CDATA[
    .fil0 {fill:black;fill-rule:nonzero}
    .fil2 {fill:#005675;fill-rule:nonzero}
    .fil4 {fill:#007290;fill-rule:nonzero}
    .fil1 {fill:#0095B8;fill-rule:nonzero}
    .fil3 {fill:#0ABAEF;fill-rule:nonzero}
    .fil7 {fill:#267933;fill-rule:nonzero}
    .fil6 {fill:#69931C;fill-rule:nonzero}
    .fil11 {fill:#791A15;fill-rule:nonzero}
    .fil5 {fill:#80B63D;fill-rule:nonzero}
    .fil8 {fill:#AECC52;fill-rule:nonzero}
    .fil10 {fill:#B51126;fill-rule:nonzero}
    .fil9 {fill:#E4032D;fill-rule:nonzero}
    .fil12 {fill:#E95060;fill-rule:nonzero}
   ]]>
  </style>
 </defs>
 <g id="Layer_x0020_1">
  <metadata id="CorelCorpID_0Corel-Layer"/>
  <g id="_2647406498160">
   <g>
    <path class="fil0" d="M5726 4935c-1,-90 -33,-154 -98,-189 -20,-10 -45,-18 -75,-23 -30,-6 -63,-9 -100,-9l-130 0 0 452 130 0c95,0 164,-18 207,-55 21,-17 38,-42 49,-72 12,-30 17,-65 17,-104zm-403 -640l0 0 0 387 136 0c158,-1 239,-67 240,-198 1,-128 -85,-190 -252,-189l-124 0zm-107 809l0 0c0,-14 1,-37 2,-69l0 -609 -2 -60c0,-12 -1,-21 -2,-25 0,-5 -1,-9 -3,-13 -4,-15 -14,-25 -30,-32 -14,-6 -34,-9 -61,-9l0 -20 348 -1c50,1 96,4 137,11 41,6 73,15 99,27 72,34 108,92 108,175 1,118 -77,193 -238,213l-27 4c36,1 85,13 108,19 23,5 45,13 67,24 85,43 127,112 126,207 0,115 -56,190 -170,225 -24,7 -56,13 -93,17 -38,4 -79,6 -124,6l-341 0 0 -21c40,0 68,-6 80,-21 5,-5 9,-10 11,-16 2,-6 4,-17 5,-32z"/>
    <path class="fil0" d="M6018 5025c0,42 10,76 31,102 20,26 48,40 82,40 35,0 68,-9 98,-27 31,-17 55,-41 73,-70 10,-18 18,-42 23,-71 5,-29 7,-64 7,-107l0 -67c-62,6 -106,12 -139,18 -32,7 -61,17 -86,30 -59,29 -89,80 -89,152zm328 143l0 0c-7,-14 -12,-31 -14,-73l-1 -13 -8 10c-10,11 -20,20 -29,29 -10,8 -21,17 -34,25 -27,20 -53,35 -79,43 -25,8 -54,12 -86,12 -55,0 -98,-13 -128,-39 -17,-15 -31,-34 -40,-58 -10,-23 -15,-48 -15,-75 0,-99 61,-163 186,-192 33,-7 68,-14 104,-19 37,-4 79,-9 125,-12l5 -86c0,-30 -1,-54 -4,-72 -3,-19 -8,-35 -15,-48 -18,-36 -56,-54 -110,-54 -88,0 -135,42 -140,124 0,13 -2,23 -3,28 -2,6 -5,9 -9,12 -9,6 -23,9 -42,10 -43,0 -59,-12 -59,-34 1,-22 8,-44 23,-65 15,-21 36,-39 63,-55 48,-26 110,-40 186,-40 83,0 139,19 169,55 13,15 22,34 28,56 6,23 9,52 9,87l0 7 -1 34 -2 89 -1 123 -1 60c0,28 1,49 3,73 2,23 10,49 29,56 19,7 38,10 73,10 27,0 47,-3 60,-9 16,-7 25,-21 30,-41 3,-19 5,-49 5,-88l0 -347c1,-47 -5,-81 -18,-98 -13,-17 -38,-24 -71,-24l0 -18 185 -14 0 148 9 -18c28,-48 59,-83 93,-103 35,-21 78,-31 130,-31 79,-1 134,25 166,78 11,17 20,39 25,63 5,25 8,57 7,96l0 268c0,40 2,70 5,89 4,20 14,34 29,40 13,6 43,8 69,9 24,-1 43,-4 55,-9 15,-7 25,-21 29,-41 3,-19 5,-49 4,-88l0 -630c1,-37 -1,-63 -4,-81 -4,-18 -13,-30 -28,-35 -14,-5 -33,-7 -59,-7l0 -19 192 -10c-2,43 -4,87 -5,132 -2,46 -2,87 -2,122l0 423 212 -232c30,-33 46,-61 46,-84 2,-31 -29,-45 -81,-47l0 -19 275 0 0 19c-16,2 -30,5 -43,9 -13,4 -27,11 -41,19 -14,9 -26,17 -35,24 -10,7 -22,18 -35,31 -13,14 -32,34 -58,62l-70 75 184 288c21,34 40,58 57,72 17,13 39,22 65,26l0 18 -168 0c-4,-9 -11,-21 -19,-36l-27 -49 -20 -36 -135 -221 -107 119 0 67c-1,39 1,69 5,88 4,20 13,34 28,41 14,6 34,9 60,9l0 18 -567 0 0 -18c39,-1 65,-7 76,-21 4,-6 7,-12 9,-19 3,-7 4,-16 5,-27 0,-8 1,-21 2,-37 1,-17 2,-28 2,-34l0 -260c0,-65 -7,-112 -22,-142 -22,-48 -62,-72 -118,-72 -63,0 -113,30 -151,89 -14,23 -25,48 -32,77 -8,28 -12,56 -12,84l0 224c-1,40 1,70 5,89 4,20 13,34 29,40 13,6 34,9 60,9l0 18 -279 0c-24,1 -71,2 -95,2 -24,0 -36,-3 -58,-4 -20,-6 -28,-11 -35,-24z"/>
    <path class="fil0" d="M568 4768l60 0c72,-1 124,-17 158,-51 19,-20 32,-45 42,-77 9,-31 14,-67 14,-108 0,-153 -67,-229 -200,-230l-74 0 0 466zm0 36l0 0 0 230c0,37 2,65 7,83 4,18 15,30 30,35 16,6 41,10 73,10l0 32 -362 0 0 -32c31,0 54,-4 68,-10 15,-5 25,-17 29,-35 5,-18 7,-46 6,-83l0 -606c1,-37 -1,-65 -6,-83 -4,-18 -13,-30 -27,-36 -14,-6 -36,-9 -66,-10l0 -33 346 0c116,0 201,21 255,62 55,42 81,107 81,197 0,125 -49,207 -147,246 -26,10 -58,18 -98,24 -40,6 -84,9 -133,9l-56 0z"/>
    <path class="fil0" d="M1165 4807l263 0c-1,-38 -3,-69 -6,-92 -3,-24 -7,-44 -14,-63 -22,-65 -56,-97 -102,-96 -52,0 -91,36 -116,109 -7,18 -12,39 -16,61 -4,22 -7,49 -9,81zm420 36l0 0 -422 0c1,45 4,82 8,113 5,30 13,58 23,83 36,82 90,123 163,123 41,-1 79,-13 113,-37 33,-24 61,-59 84,-104l30 19c-30,59 -66,102 -108,129 -42,28 -94,41 -155,41 -96,-1 -184,-32 -240,-92 -55,-60 -83,-143 -84,-247 1,-105 28,-188 82,-250 53,-61 138,-92 230,-94 61,0 120,14 162,42 42,28 73,68 93,122 6,17 11,37 14,60 4,23 6,54 7,92z"/>
    <path class="fil0" d="M1612 4545l234 -16c1,23 2,43 3,59 0,16 1,29 1,42l0 37c51,-93 112,-140 184,-141 31,1 56,10 76,27 19,18 29,41 30,68 -1,23 -9,41 -26,55 -16,13 -37,20 -64,21 -32,1 -51,-12 -58,-40 -5,-17 -10,-29 -15,-35 -5,-6 -12,-9 -22,-9l-2 0c-25,2 -48,22 -70,59 -10,18 -17,39 -22,61 -5,22 -8,48 -8,77l0 230c0,37 2,64 6,81 4,18 13,29 27,35 15,5 37,8 67,9l0 29 -346 0 0 -29c28,0 49,-3 63,-9 13,-5 22,-17 26,-35 4,-17 6,-44 6,-81l0 -345c1,-51 -4,-84 -16,-99 -11,-16 -36,-23 -74,-21l0 -30z"/>
    <path class="fil0" d="M2417 4529l2 123c50,-83 122,-125 216,-126 96,0 155,43 177,131 27,-45 58,-78 92,-99 35,-22 75,-32 122,-32 73,1 127,25 161,72 14,19 24,41 29,67 6,26 9,60 9,101l0 274c-1,37 1,64 5,81 4,18 13,30 27,35 13,6 34,9 62,8l0 30 -337 0 0 -30c27,1 47,-2 60,-8 13,-5 22,-17 26,-35 4,-17 5,-44 5,-81l0 -272c0,-66 -8,-113 -24,-142 -16,-29 -43,-43 -79,-42 -44,-1 -81,22 -111,68 -26,39 -39,81 -39,126l0 262c0,37 2,64 6,81 4,18 12,30 26,35 13,6 33,9 61,8l0 30 -334 0 0 -30c27,1 47,-2 60,-8 13,-5 22,-17 26,-35 4,-17 5,-44 5,-81l0 -274c1,-123 -33,-184 -101,-182 -42,1 -77,21 -106,60 -28,38 -43,86 -44,144l0 252c-1,37 1,64 5,82 4,18 12,29 25,35 14,5 34,8 60,7l0 30 -337 0 0 -30c29,1 49,-2 63,-7 14,-6 22,-17 26,-35 5,-18 6,-45 6,-82l0 -346c1,-50 -4,-83 -15,-98 -12,-15 -37,-22 -77,-21l0 -30 242 -16z"/>
    <path class="fil0" d="M4204 4586l0 415c0,27 1,50 3,67 2,18 5,33 9,45 6,14 14,25 25,34 11,8 23,12 36,12 27,0 56,-13 87,-38l18 31c-50,42 -107,62 -171,62 -68,-1 -115,-24 -140,-68 -5,-10 -9,-21 -12,-34 -2,-13 -4,-30 -5,-51 -1,-22 -2,-51 -2,-87l0 -388 -71 0 0 -38c27,-1 50,-6 69,-17 19,-10 35,-26 49,-48 11,-17 20,-36 28,-57 7,-20 13,-46 18,-77l63 -6c-1,17 -2,33 -2,50 -1,17 -1,38 -2,61 0,24 0,55 0,92l150 0 0 40 -150 0z"/>
    <path class="fil0" d="M3748 4931l0 -96c-89,6 -152,23 -189,50 -37,27 -56,69 -54,126 0,44 9,80 27,106 18,26 43,40 73,40 26,0 49,-7 70,-22 22,-14 39,-34 51,-60 8,-15 14,-35 17,-57 4,-23 6,-52 5,-87zm233 237l0 0 0 26c-37,3 -52,3 -90,3 -30,0 -62,-1 -88,-11 -16,-6 -25,-11 -37,-23 -8,-14 -14,-15 -16,-52 -32,35 -66,61 -101,77 -34,16 -72,24 -112,24 -60,-1 -106,-17 -140,-49 -34,-33 -51,-77 -52,-134 0,-107 66,-173 199,-199 60,-11 128,-19 204,-23l0 -81c1,-65 -6,-110 -20,-135 -14,-25 -40,-37 -77,-36 -39,-1 -66,14 -83,43 -6,10 -10,21 -13,34 -3,13 -5,31 -7,54 -1,22 -7,38 -19,47 -12,10 -31,14 -57,14 -57,-1 -86,-20 -87,-57 0,-22 7,-43 21,-63 13,-20 32,-38 56,-53 52,-32 120,-48 204,-47 86,-1 147,16 184,51 17,15 29,36 37,60 8,24 12,56 12,94l-1 108 -2 108c-1,36 -1,58 -1,68 0,44 1,77 4,98 4,21 7,30 21,41 24,13 44,13 61,13z"/>
    <path class="fil0" d="M4820 4931l0 -96c-89,6 -153,23 -190,50 -37,27 -55,69 -54,126 0,44 9,80 27,106 18,27 43,40 74,40 25,0 48,-7 70,-21 21,-15 38,-35 50,-61 8,-15 14,-35 17,-57 4,-23 6,-52 6,-87zm232 237l0 0 0 26c-37,3 -51,3 -90,3 -30,0 -61,-1 -88,-10 -16,-6 -25,-12 -37,-24 -8,-14 -14,-14 -16,-52 -32,35 -66,61 -100,77 -35,16 -73,24 -113,24 -60,0 -106,-17 -140,-49 -34,-33 -51,-77 -52,-134 0,-106 67,-173 200,-199 59,-11 127,-19 204,-23l0 -81c0,-65 -7,-110 -21,-135 -14,-25 -40,-37 -76,-36 -39,0 -67,14 -84,43 -6,10 -10,21 -13,34 -3,13 -5,31 -7,54 -1,22 -7,38 -19,47 -12,10 -31,14 -57,14 -57,0 -86,-20 -87,-57 0,-22 7,-43 21,-63 13,-20 32,-38 56,-53 52,-32 120,-48 204,-47 86,-1 148,16 185,51 16,16 29,36 36,60 8,25 12,56 12,94l-1 108 -1 108c-1,36 -2,58 -2,68 0,45 1,77 5,98 3,21 6,30 20,41 24,13 44,13 61,13z"/>
   </g>
   <polygon class="fil1" points="7613,3638 7611,3686 8530,4764 8563,4770 8567,4768 8583,4738 8191,3426 8125,3381 "/>
   <polygon class="fil2" points="7611,3686 8530,4764 8563,4770 7885,3738 "/>
   <polygon class="fil3" points="8125,3381 7891,3657 7986,3698 8191,3426 8191,3426 "/>
   <polygon class="fil4" points="7611,3686 7885,3738 7890,3657 7613,3638 "/>
   <polygon class="fil4" points="7986,3698 8567,4768 8583,4738 8191,3426 "/>
   <polygon class="fil5" points="9089,3355 9683,3628 9684,3705 8709,5183 8664,5194 8658,5191 8644,5158 9037,3383 "/>
   <polygon class="fil6" points="9288,3739 8664,5194 8709,5183 9684,3705 "/>
   <polygon class="fil7" points="9037,3384 8644,5158 8658,5191 9176,3677 "/>
   <polygon class="fil8" points="9266,3633 9288,3739 9684,3705 9683,3628 9683,3628 "/>
   <polygon class="fil6" points="9037,3383 9176,3677 9266,3633 9089,3355 "/>
   <polygon class="fil9" points="8181,2934 8204,2889 8965,2880 9014,2931 8650,4150 8627,4163 8626,4163 8601,4146 "/>
   <polygon class="fil10" points="8181,2934 8475,3081 8530,3016 8204,2889 "/>
   <polygon class="fil11" points="8181,2934 8601,4146 8626,4163 8475,3081 8181,2934 "/>
   <polygon class="fil10" points="8619,3081 8627,4163 8650,4150 9014,2931 "/>
   <polygon class="fil12" points="8965,2880 8530,3016 8619,3081 9014,2931 "/>
  </g>
 </g>
</svg>
